<svg width="32" height="32" viewBox="0 0 32 32" fill="none" xmlns="http://www.w3.org/2000/svg">
  <defs>
    <linearGradient id="grad" x1="0%" y1="0%" x2="100%" y2="100%">
      <stop offset="0%" style="stop-color:#00FFFF"/>
      <stop offset="100%" style="stop-color:#FF00FF"/>
    </linearGradient>
  </defs>

  <!-- Simplified ghost for favicon -->
  <path d="M16 4 C11 4, 8 7, 8 12 C8 15, 8 20, 8 22 C8 23, 9 23, 10 22 C11 21, 12 21, 14 22 C16 23, 16 23, 16 22 C16 23, 16 23, 18 22 C20 21, 21 21, 22 22 C23 23, 24 23, 24 22 C24 20, 24 15, 24 12 C24 7, 21 4, 16 4 Z"
        fill="url(#grad)"/>

  <!-- Eyes -->
  <circle cx="12" cy="11" r="2" fill="#00FFFF"/>
  <circle cx="20" cy="11" r="2" fill="#00FFFF"/>

  <!-- Dollar -->
  <g transform="translate(16, 18)">
    <path d="M-1 -4 L-1 4 M1 -4 L1 4 M-2 -2 C-2 -3, -1 -3, 0 -3 C1 -3, 2 -3, 2 -2 C2 -1, 1 -1, 0 -1 M0 -1 C-1 -1, -2 -1, -2 0 C-2 1, -1 1, 0 1 C1 1, 2 1, 2 0"
          stroke="#00FFFF"
          stroke-width="1.5"
          fill="none"/>
  </g>
</svg>
