<svg width="24" height="24" viewBox="0 0 24 24" fill="none" xmlns="http://www.w3.org/2000/svg">
  <defs>
    <filter id="link-glow">
      <feGaussianBlur stdDeviation="1" result="coloredBlur"/>
      <feMerge>
        <feMergeNode in="coloredBlur"/>
        <feMergeNode in="SourceGraphic"/>
      </feMerge>
    </filter>
  </defs>

  <!-- Chain link left -->
  <path d="M10 13 C10.7 13.7 11.5 14 12.5 14 C13.5 14 14.3 13.7 15 13 L18 10 C19.7 8.3 19.7 5.7 18 4 C16.3 2.3 13.7 2.3 12 4 L10.5 5.5"
        stroke="#00FFFF"
        stroke-width="2"
        stroke-linecap="round"
        stroke-linejoin="round"
        fill="none"
        filter="url(#link-glow)"/>

  <!-- Chain link right -->
  <path d="M14 11 C13.3 10.3 12.5 10 11.5 10 C10.5 10 9.7 10.3 9 11 L6 14 C4.3 15.7 4.3 18.3 6 20 C7.7 21.7 10.3 21.7 12 20 L13.5 18.5"
        stroke="#00FFFF"
        stroke-width="2"
        stroke-linecap="round"
        stroke-linejoin="round"
        fill="none"
        filter="url(#link-glow)"/>
</svg>
